<?xml version="1.0" encoding="utf-8"?>
<!-- Generator: Adobe Illustrator 26.5.0, SVG Export Plug-In . SVG Version: 6.00 Build 0)  -->
<svg version="1.1" id="Layer_1" xmlns:serif="http://www.serif.com/"
	 xmlns="http://www.w3.org/2000/svg" xmlns:xlink="http://www.w3.org/1999/xlink" x="0px" y="0px" viewBox="0 0 598 139"
	 style="enable-background:new 0 0 598 139;" xml:space="preserve">
<style type="text/css">
	.st0{fill:#FCFF00;}
	.st1{fill-rule:evenodd;clip-rule:evenodd;fill:#FFFFFF;}
</style>
<g>
	<g>
		<g>
			<g>
				<g transform="matrix(0.998247,0,0,0.998247,0,2.96059e-14)">
					
						<image style="overflow:visible;enable-background:new    ;" width="500" height="500" id="_Image1" xlink:href="BAAFEA12.png"  transform="matrix(5.727263e-02 0 0 5.727263e-02 0 4.5718)">
					</image>
				</g>
				<path class="st0" d="M21.8,14.4c0,0.3-0.1,0.5-0.3,0.7c-0.2,0.2-0.4,0.3-0.7,0.3H8.2v-3.9h13.6V14.4z M21.8,25.1H8.2v-3.9h12.6
					c0.3,0,0.5,0.1,0.7,0.3c0.2,0.2,0.3,0.4,0.3,0.7V25.1z M27.6,5.6H2.3v25.3h25.3v-8.7c0-1.4-0.4-2.7-1.2-3.9
					c0.8-1.2,1.2-2.5,1.2-3.9C27.6,14.4,27.6,5.6,27.6,5.6z"/>
				<g transform="matrix(0.998247,0,0,0.998247,0,2.96059e-14)">
					
						<image style="overflow:visible;enable-background:new    ;" width="500" height="500" id="_Image2" xlink:href="BAAFEA16.png"  transform="matrix(5.727263e-02 0 0 5.727263e-02 27.8176 4.5718)">
					</image>
				</g>
				<path class="st0" d="M49.6,5.6v19.4H36V5.6h-5.8v25.3h25.3V5.6C55.4,5.6,49.6,5.6,49.6,5.6z"/>
				<g transform="matrix(0.996861,0,0,0.998247,0,2.96059e-14)">
					
						<image style="overflow:visible;enable-background:new    ;" width="160" height="500" id="_Image3" xlink:href="BAAFEA11.png"  transform="matrix(5.719311e-02 0 0 5.727263e-02 55.6352 4.5718)">
					</image>
				</g>
				<rect x="58" y="5.6" class="st0" width="5.8" height="25.3"/>
				<g transform="matrix(0.998247,0,0,0.998247,0,2.96059e-14)">
					
						<image style="overflow:visible;enable-background:new    ;" width="500" height="500" id="_Image4" xlink:href="BAAFEA13.png"  transform="matrix(5.727263e-02 0 0 5.727263e-02 64.0247 4.5718)">
					</image>
				</g>
				<path class="st0" d="M66.4,5.6v25.3h25.3v-5.8H72.2V5.6C72.2,5.6,66.4,5.6,66.4,5.6z"/>
				<g transform="matrix(0.998247,0,0,0.998247,0,2.96059e-14)">
					
						<image style="overflow:visible;enable-background:new    ;" width="500" height="500" id="_Image5" xlink:href="BAAFEA10.png"  transform="matrix(5.727263e-02 0 0 5.727263e-02 91.842 4.5718)">
					</image>
				</g>
				<path class="st0" d="M100,25.1h13.6V11.5H100V25.1z M94.2,30.9V5.6h20.4c1.3,0,2.5,0.5,3.4,1.4c1,1,1.4,2.1,1.4,3.4V26
					c0,1.3-0.5,2.5-1.4,3.4c-1,1-2.1,1.4-3.4,1.4C114.6,30.9,94.2,30.9,94.2,30.9z"/>
				<g transform="matrix(0.996861,0,0,0.998247,0,2.96059e-14)">
					
						<image style="overflow:visible;enable-background:new    ;" width="160" height="500" id="_Image3_00000114779108881278062410000006654510252373925029_" xlink:href="BAAFEA1E.png"  transform="matrix(5.719311e-02 0 0 5.727263e-02 119.6595 4.5718)">
					</image>
				</g>
				<rect x="122" y="5.6" class="st0" width="5.8" height="25.3"/>
				<g transform="matrix(0.998247,0,0,0.998247,0,2.96059e-14)">
					
						<image style="overflow:visible;enable-background:new    ;" width="500" height="500" id="_Image6" xlink:href="BAAFEA15.png"  transform="matrix(5.727263e-02 0 0 5.727263e-02 128.0486 4.5718)">
					</image>
				</g>
				<path class="st0" d="M149.8,5.6v16.2L136.3,5.6h-5.9v25.3h5.8V14.6l13.5,16.2h5.9V5.6C155.6,5.6,149.8,5.6,149.8,5.6z"/>
				<g transform="matrix(0.998247,0,0,0.998247,0,2.96059e-14)">
					
						<image style="overflow:visible;enable-background:new    ;" width="500" height="500" id="_Image7" xlink:href="BAAFEA17.png"  transform="matrix(5.727263e-02 0 0 5.727263e-02 155.8665 4.5718)">
					</image>
				</g>
				<path class="st0" d="M158.2,5.6v25.3h25.3V15.3h-15.5v5.8h9.7v3.9H164V11.5h19.4V5.6L158.2,5.6L158.2,5.6z"/>
				<g transform="matrix(0.998247,0,0,0.998247,0,2.96059e-14)">
					
						<image style="overflow:visible;enable-background:new    ;" width="500" height="500" id="_Image8" xlink:href="BAAFEA14.png"  transform="matrix(5.727263e-02 0 0 5.727263e-02 192.9689 4.5718)">
					</image>
				</g>
				<path class="st0" d="M195.3,5.6v25.3h5.8v-9.7h13.6v9.7h5.8V5.6L195.3,5.6L195.3,5.6z M201.1,11.5h13.6v3.9h-13.6V11.5z"/>
			</g>
			<g>
				<g transform="matrix(0.999785,0,0,0.999785,0,0)">
					
						<image style="overflow:visible;enable-background:new    ;" width="498" height="498" id="_Image9" xlink:href="FB6CD4E5.png"  transform="matrix(5.736087e-02 0 0 5.736087e-02 172.1395 102.7617)">
					</image>
				</g>
				<path class="st0" d="M193.9,112.5c0,0.3-0.1,0.5-0.3,0.7c-0.2,0.2-0.4,0.3-0.7,0.3h-12.6v-3.9h13.6V112.5z M193.9,123.2h-13.6
					v-3.9h12.6c0.3,0,0.5,0.1,0.7,0.3c0.2,0.2,0.3,0.4,0.3,0.7V123.2z M199.7,103.8h-25.2v25.2h25.2v-8.7c0-1.4-0.4-2.7-1.2-3.9
					c0.8-1.2,1.2-2.5,1.2-3.9V103.8L199.7,103.8z"/>
				<g transform="matrix(0.999785,0,0,0.999785,0,0)">
					
						<image style="overflow:visible;enable-background:new    ;" width="498" height="498" id="_Image10" xlink:href="FB6CD4FB.png"  transform="matrix(5.736087e-02 0 0 5.736087e-02 199.9429 102.7617)">
					</image>
				</g>
				<path class="st0" d="M202.3,103.8v25.2h25.2v-5.8h-19.4v-3.9h19.4v-5.8h-19.4v-3.9h19.4v-5.8L202.3,103.8L202.3,103.8z"/>
				<g transform="matrix(0.999785,0,0,0.999785,0,0)">
					
						<image style="overflow:visible;enable-background:new    ;" width="498" height="498" id="_Image11" xlink:href="FB6CD4FD.png"  transform="matrix(5.736087e-02 0 0 5.736087e-02 227.7462 102.7617)">
					</image>
				</g>
				<path class="st0" d="M230.1,103.8v5.8h9.7v19.4h5.8v-19.4h9.7v-5.8H230.1z"/>
				<g transform="matrix(0.999785,0,0,0.999785,0,0)">
					
						<image style="overflow:visible;enable-background:new    ;" width="498" height="498" id="_Image11_00000124878860326415299040000009478030375813076401_" xlink:href="FB6CD4FF.png"  transform="matrix(5.736087e-02 0 0 5.736087e-02 255.549 102.7617)">
					</image>
				</g>
				<path class="st0" d="M257.9,103.8v5.8h9.7v19.4h5.8v-19.4h9.7v-5.8H257.9z"/>
				<g transform="matrix(0.999785,0,0,0.999785,0,0)">
					
						<image style="overflow:visible;enable-background:new    ;" width="498" height="498" id="_Image10_00000159439105496490691740000003331602081320063120_" xlink:href="FB6CD4FC.png"  transform="matrix(5.736087e-02 0 0 5.736087e-02 283.3524 102.7617)">
					</image>
				</g>
				<path class="st0" d="M285.7,103.8v25.2h25.2v-5.8h-19.4v-3.9h19.4v-5.8h-19.4v-3.9h19.4v-5.8L285.7,103.8L285.7,103.8z"/>
				<g transform="matrix(0.999785,0,0,0.999785,0,0)">
					
						<image style="overflow:visible;enable-background:new    ;" width="498" height="498" id="_Image12" xlink:href="FB6CD4E4.png"  transform="matrix(5.736087e-02 0 0 5.736087e-02 311.1558 102.7617)">
					</image>
				</g>
				<path class="st0" d="M319.3,113.5v-3.9h13.6v2.9c0,0.3-0.1,0.5-0.3,0.7c-0.2,0.2-0.4,0.3-0.7,0.3H319.3z M338.7,103.8h-25.2
					v25.2h5.8v-9.7H330c0.8,0,1.5,0.3,2,0.9c0.6,0.6,0.9,1.3,0.9,2.1v6.8h5.8v-6.8c0-1.9-0.6-3.7-1.7-5.2c1.1-1.3,1.7-2.8,1.7-4.5
					V103.8L338.7,103.8z"/>
				<g transform="matrix(0.999785,0,0,0.999785,0,0)">
					
						<image style="overflow:visible;enable-background:new    ;" width="498" height="498" id="_Image11_00000084512786247642248740000014219128131482379399_" xlink:href="FB6CD4E7.png"  transform="matrix(5.736087e-02 0 0 5.736087e-02 348.2391 102.7617)">
					</image>
				</g>
				<path class="st0" d="M350.6,103.8v5.8h9.7v19.4h5.8v-19.4h9.7v-5.8H350.6z"/>
				<g transform="matrix(0.999785,0,0,0.999785,0,0)">
					
						<image style="overflow:visible;enable-background:new    ;" width="498" height="498" id="_Image13" xlink:href="FB6CD4E2.png"  transform="matrix(5.736087e-02 0 0 5.736087e-02 376.0424 102.7617)">
					</image>
				</g>
				<path class="st0" d="M378.4,129.1h25.2v-25.2h-25.2V129.1z M384.2,109.6h13.6v13.6h-13.6V109.6z"/>
				<g transform="matrix(0.999494,0,0,0.999785,0,0)">
					
						<image style="overflow:visible;enable-background:new    ;" width="566" height="498" id="_Image14" xlink:href="FB6CD4E3.png"  transform="matrix(5.734418e-02 0 0 5.736087e-02 403.8464 102.7617)">
					</image>
				</g>
				<path class="st0" d="M430.2,103.8l-9.4,7.9l-9.4-7.9h-5.1v25.2h5.8V112l8.7,7.3l8.8-7.3v17.1h5.8v-25.2H430.2L430.2,103.8z"/>
				<g transform="matrix(0.999785,0,0,0.999785,0,0)">
					
						<image style="overflow:visible;enable-background:new    ;" width="498" height="498" id="_Image13_00000153665715341539799350000013113826052853083068_" xlink:href="FB6CD4EB.png"  transform="matrix(5.736087e-02 0 0 5.736087e-02 435.54 102.7617)">
					</image>
				</g>
				<path class="st0" d="M437.9,129.1h25.2v-25.2h-25.2L437.9,129.1L437.9,129.1z M443.7,109.6h13.6v13.6h-13.6V109.6z"/>
				<g transform="matrix(0.999785,0,0,0.999785,0,0)">
					
						<image style="overflow:visible;enable-background:new    ;" width="498" height="498" id="_Image12_00000167361298785988959660000007743628539096616634_" xlink:href="FB6CD500.png"  transform="matrix(5.736087e-02 0 0 5.736087e-02 463.3434 102.7617)">
					</image>
				</g>
				<path class="st0" d="M471.5,113.5v-3.9h13.6v2.9c0,0.3-0.1,0.5-0.3,0.7c-0.2,0.2-0.4,0.3-0.7,0.3H471.5z M490.9,103.8h-25.2
					v25.2h5.8v-9.7h10.7c0.8,0,1.5,0.3,2,0.9c0.6,0.6,0.9,1.3,0.9,2.1v6.8h5.8v-6.8c0-1.9-0.6-3.7-1.7-5.2c1.1-1.3,1.7-2.8,1.7-4.5
					V103.8L490.9,103.8z"/>
				<g transform="matrix(0.999785,0,0,0.999785,0,0)">
					
						<image style="overflow:visible;enable-background:new    ;" width="498" height="498" id="_Image12_00000149372201696925806370000009017738700809066906_" xlink:href="FB6CD503.png"  transform="matrix(5.736087e-02 0 0 5.736087e-02 491.1468 102.7617)">
					</image>
				</g>
				<path class="st0" d="M499.3,113.5v-3.9h13.6v2.9c0,0.3-0.1,0.5-0.3,0.7c-0.2,0.2-0.4,0.3-0.7,0.3H499.3z M518.7,103.8h-25.2
					v25.2h5.8v-9.7H510c0.8,0,1.5,0.3,2,0.9c0.6,0.6,0.9,1.3,0.9,2.1v6.8h5.8v-6.8c0-1.9-0.6-3.7-1.7-5.2c1.1-1.3,1.7-2.8,1.7-4.5
					V103.8L518.7,103.8z"/>
				<g transform="matrix(0.999785,0,0,0.999785,0,0)">
					
						<image style="overflow:visible;enable-background:new    ;" width="498" height="498" id="_Image13_00000076568902633404517490000000041194601413911718_" xlink:href="FB6CD501.png"  transform="matrix(5.736087e-02 0 0 5.736087e-02 518.9502 102.7617)">
					</image>
				</g>
				<path class="st0" d="M521.3,129.1h25.2v-25.2h-25.2V129.1z M527.1,109.6h13.6v13.6h-13.6V109.6z"/>
				<g transform="matrix(0.999894,0,0,0.999785,0,0)">
					
						<image style="overflow:visible;enable-background:new    ;" width="732" height="498" id="_Image15" xlink:href="FB6CD50F.png"  transform="matrix(5.736713e-02 0 0 5.736087e-02 546.9835 102.7617)">
					</image>
				</g>
				<path class="st0" d="M581.9,103.8l-7.2,18.5l-3.8-8.8h-3.8l-3.9,9.1l-7.9-18.8h-6.3l10.6,25.2h7.1l2.2-5.2l2.2,5.2h7.1l9.8-25.2
					H581.9z"/>
			</g>
		</g>
		<g>
			<g transform="matrix(0.999926,0,0,0.998247,0,0)">
				
					<image style="overflow:visible;enable-background:new    ;" width="6262" height="500" id="_Image16" xlink:href="FB6CD502.png"  transform="matrix(5.736896e-02 0 0 5.727263e-02 229.9035 4.5718)">
				</image>
			</g>
			<path class="st1" d="M242.6,5.6l19.1,19.8l326.5-0.1v5.4l-331.7,0.1L231.9,5.6L242.6,5.6L242.6,5.6z"/>
			<g transform="matrix(0.999876,0,0,0.999785,0,0)">
				
					<image style="overflow:visible;enable-background:new    ;" width="2936" height="498" id="_Image17" xlink:href="FB6CD505.png"  transform="matrix(5.736610e-02 0 0 5.736087e-02 9.972318e-05 102.7617)">
				</image>
			</g>
			<path class="st1" d="M158.4,103.8l-16,18.1H2.3v7.2h144.1l21.4-25.2H158.4L158.4,103.8z"/>
		</g>
		<g transform="matrix(0.999966,0,0,0.999195,0,0)">
			
				<image style="overflow:visible;enable-background:new    ;" width="10265" height="738" id="_Image18" xlink:href="FB6CD506.png"  transform="matrix(5.737126e-02 0 0 5.732702e-02 6.926951e-02 46.6996)">
			</image>
		</g>
	</g>
</g>
</svg>
